<?xml version="1.0" standalone="no"?>
<svg viewBox="0 0 200 200" xmlns="http://www.w3.org/2000/svg">
  <path fill="#4ED94C" d="M36.4,-58.6C47.5,-49.6,57,-40,61.7,-28.5C66.5,-17.1,66.5,-3.8,67,11.4C67.6,26.6,68.8,43.6,62.4,57.8C55.9,72,41.9,83.4,27.9,81.3C13.9,79.2,-0.1,63.6,-16.6,58.1C-33.2,52.6,-52.2,57.2,-65.7,51.5C-79.2,45.7,-87.1,29.7,-86.7,14.1C-86.3,-1.4,-77.6,-16.5,-70.4,-32.1C-63.1,-47.7,-57.3,-63.9,-45.8,-72.8C-34.3,-81.7,-17.2,-83.2,-2.2,-79.7C12.7,-76.3,25.4,-67.7,36.4,-58.6Z" transform="translate(100 100)" />
</svg>
